#!OML:ASF H:\LiuWeirdWalks\Patient Classification 1\Patient 1\Session 1\male.ASF
:FULLY-SPECIFIED
:DEGREES
618
root 3.19954 17.9662 38.4307 1.76278 -0.853226 -6.47746
lowerback 6.44804 0.507215 2.26216
upperback -1.22109 1.03414 3.56667
thorax -4.91833 0.501095 2.32613
lowerneck -29.3157 0.0314907 3.30459
upperneck 27.258 -0.53333 -2.86737
head 14.2073 -0.306295 -1.82994
rclavicle 1.03244e-014 2.90226e-014
rhumerus -41.1165 -3.94472 -75.2197
rradius 40.8344
rwrist -10.1999
rhand -14.3774 2.65283
rfingers 7.12502
rthumb 11.7652 -26.9967
lclavicle 1.03244e-014 2.90226e-014
lhumerus -33.4566 -3.78113 85.3472
lradius 37.2334
lwrist 7.86759
lhand -15.5641 -5.6516
lfingers 7.12502
lthumb 10.6207 24.06
rfemur -17.4518 -7.46552 22.3873
rtibia 40.7092
rfoot -16.554 -15.6626
rtoes -11.7298
lfemur -12.5434 1.51626 -17.7256
ltibia 31.1906
lfoot -10.7953 11.1026
ltoes 2.91911
619
root 3.18186 17.9665 38.4409 2.14438 -0.821631 -6.19746
lowerback 6.10559 0.443551 1.90031
upperback -1.27707 0.906332 3.54829
thorax -4.78419 0.448338 2.52527
lowerneck -29.3228 0.118911 3.38694
upperneck 27.2685 -0.420244 -2.94362
head 14.2176 -0.260571 -1.85244
rclavicle -6.52262e-015 1.19271e-015
rhumerus -41.0046 -3.91393 -75.1862
rradius 40.7464
rwrist -10.239
rhand -14.3911 2.64856
rfingers 7.12502
rthumb 11.7519 -27.0018
lclavicle -6.52262e-015 1.19271e-015
lhumerus -33.5595 -3.51843 85.3715
lradius 36.653
lwrist 7.54005
lhand -15.3139 -5.66527
lfingers 7.12502
lthumb 10.862 24.0338
rfemur -17.4319 -7.18335 22.2324
rtibia 39.5846
rfoot -15.34 -15.2828
rtoes -11.4783
lfemur -12.9311 1.6092 -17.9703
ltibia 31.1717
lfoot -10.8526 10.9574
ltoes 2.93246
620
root 3.16366 17.9667 38.452 2.53337 -0.795103 -5.90087
lowerback 5.72551 0.323925 1.41598
upperback -1.3278 0.697818 3.57902
thorax -4.62103 0.359217 2.85173
lowerneck -29.3015 0.298193 3.57658
upperneck 27.2694 -0.192233 -3.11353
head 14.223 -0.168357 -1.90759
rclavicle 1.26104e-014 9.93923e-015
rhumerus -40.8267 -3.69479 -75.1975
rradius 40.6252
rwrist -10.2836
rhand -14.4044 2.64136
rfingers 7.12502
rthumb 11.7392 -27.0097
lclavicle 1.26104e-014 9.93923e-015
lhumerus -33.6855 -3.03941 85.3497
lradius 36.0632
lwrist 7.19682
lhand -15.0761 -5.67992
lfingers 7.12502
lthumb 11.0913 24.007
rfemur -17.4267 -6.92011 22.0568
rtibia 38.5582
rfoot -14.1353 -14.857
rtoes -10.8707
lfemur -13.3202 1.71722 -18.2322
ltibia 31.1445
lfoot -10.8986 10.7951
ltoes 2.92821
621
root 3.14453 17.9667 38.4634 2.87941 -0.757243 -5.64233
lowerback 5.38329 0.185529 0.943288
upperback -1.36667 0.470732 3.63676
thorax -4.4628 0.260068 3.19997
lowerneck -29.2978 0.492622 3.7768
upperneck 27.2791 0.0587021 -3.30249
head 14.2379 -0.068066 -1.96811
rclavicle -2.37299e-015 -7.95139e-015
rhumerus -40.6293 -3.42452 -75.2169
rradius 40.4768
rwrist -10.3432
rhand -14.4264 2.64177
rfingers 7.12502
rthumb 11.718 -27.0105
lclavicle -2.37299e-015 -7.95139e-015
lhumerus -33.8076 -2.49221 85.3176
lradius 35.4592
lwrist 6.8261
lhand -14.8319 -5.65781
lfingers 7.12502
lthumb 11.3268 24.0163
rfemur -17.3595 -6.68295 21.9181
rtibia 37.5966
rfoot -13.0966 -14.5068
rtoes -9.98466
lfemur -13.67 1.8283 -18.4466
ltibia 31.1321
lfoot -10.9502 10.6134
ltoes 2.89814
622
root 3.12464 17.9661 38.4756 3.16097 -0.716494 -5.41914
lowerback 5.08291 0.00797725 0.4408
upperback -1.38776 0.194823 3.73891
thorax -4.30339 0.137043 3.61431
lowerneck -29.255 0.733825 4.02663
upperneck 27.2853 0.37094 -3.53668
head 14.248 0.0570884 -2.04276
rclavicle 6.07536e-015 -7.95139e-015
rhumerus -40.4054 -3.02398 -75.2655
rradius 40.3095
rwrist -10.4072
rhand -14.4461 2.64169
rfingers 7.12502
rthumb 11.6989 -27.0117
lclavicle 6.07536e-015 -7.95139e-015
lhumerus -33.9463 -1.80954 85.2569
lradius 34.842
lwrist 6.45365
lhand -14.5759 -5.59598
lfingers 7.12502
lthumb 11.5737 24.0644
rfemur -17.1996 -6.47855 21.8131
rtibia 36.6931
rfoot -12.4008 -14.3081
rtoes -8.81806
lfemur -13.9515 1.93972 -18.6168
ltibia 31.1324
lfoot -11.0138 10.4229
ltoes 2.85924
623
root 3.10346 17.9654 38.4856 3.34726 -0.634437 -5.32844
lowerback 4.93093 0.04975 0.496591
upperback -1.41159 0.248296 3.66764
thorax -4.24443 0.160945 3.50268
lowerneck -29.3256 0.60132 3.83016
upperneck 27.3564 0.225932 -3.40658
head 14.2853 -0.0062062 -1.98797
rclavicle 8.63471e-015 -1.94809e-014
rhumerus -40.4435 -3.40377 -75.1229
rradius 40.1915
rwrist -10.4381
rhand -14.4708 2.63501
rfingers 7.12502
rthumb 11.6751 -27.0197
lclavicle 8.63471e-015 -1.94809e-014
lhumerus -33.9319 -1.93854 85.3692
lradius 34.1518
lwrist 6.11599
lhand -14.3013 -5.49531
lfingers 7.12502
lthumb 11.8386 24.15
rfemur -16.9144 -6.30068 21.8509
rtibia 35.8263
rfoot -12.0298 -14.3478
rtoes -7.49108
lfemur -14.1505 2.03281 -18.6285
ltibia 31.1521
lfoot -11.0869 10.2032
ltoes 2.819
624
root 3.08238 17.965 38.4959 3.51747 -0.561858 -5.24232
lowerback 4.78009 0.0727543 0.524088
upperback -1.43496 0.275476 3.61422
thorax -4.18424 0.17278 3.42826
lowerneck -29.345 0.50297 3.68004
upperneck 27.4019 0.122171 -3.31162
head 14.3037 -0.0521412 -1.94602
rclavicle 1.05977e-014 2.14687e-014
rhumerus -40.4751 -3.70837 -75.0001
rradius 40.0534
rwrist -10.4389
rhand -14.4853 2.64326
rfingers 7.12502
rthumb 11.6611 -27.0122
lclavicle 1.05977e-014 2.14687e-014
lhumerus -33.9282 -1.96806 85.4519
lradius 33.4464
lwrist 5.75959
lhand -14.0276 -5.38672
lfingers 7.12502
lthumb 12.1025 24.2433
rfemur -16.6049 -6.11241 21.8882
rtibia 35.0088
rfoot -11.9064 -14.5715
rtoes -6.26366
lfemur -14.3302 2.10532 -18.6347
ltibia 31.1735
lfoot -11.1572 10.0045
ltoes 2.79485
625
root 3.06112 17.9648 38.5065 3.66764 -0.498636 -5.18288
lowerback 4.6103 0.0595 0.506081
upperback -1.43177 0.251604 3.60526
thorax -4.08341 0.160565 3.43
lowerneck -29.3481 0.468422 3.60681
upperneck 27.4205 0.0960536 -3.27959
head 14.3112 -0.0663027 -1.92633
rclavicle -1.25607e-014 4.65156e-014
rhumerus -40.4329 -3.88451 -74.9098
rradius 39.8809
rwrist -10.4137
rhand -14.4856 2.66457
rfingers 7.12502
rthumb 11.6608 -26.9909
lclavicle -1.25607e-014 4.65156e-014
lhumerus -33.9035 -1.8102 85.4903
lradius 32.7287
lwrist 5.38065
lhand -13.7611 -5.27502
lfingers 7.12502
lthumb 12.3595 24.3396
rfemur -16.2723 -5.90359 21.9487
rtibia 34.2318
rfoot -11.9271 -14.9177
rtoes -5.25934
lfemur -14.4859 2.14362 -18.6108
ltibia 31.1967
lfoot -11.2202 9.84436
ltoes 2.76831
626
root 3.04112 17.966 38.517 3.90685 -0.475371 -5.03393
lowerback 4.34383 0.0324837 0.372
upperback -1.46405 0.200767 3.585
thorax -3.96357 0.137777 3.48738
lowerneck -29.2886 0.485438 3.60929
upperneck 27.4222 0.129131 -3.30114
head 14.3015 -0.0549641 -1.92841
rclavicle -7.45443e-017 1.55052e-014
rhumerus -40.3798 -3.97714 -74.8499
rradius 39.6762
rwrist -10.3833
rhand -14.4904 2.69519
rfingers 7.12502
rthumb 11.6562 -26.9606
lclavicle -7.45443e-017 1.55052e-014
lhumerus -33.909 -1.52322 85.4844
lradius 32.0041
lwrist 4.98513
lhand -13.5022 -5.15536
lfingers 7.12502
lthumb 12.6091 24.4441
rfemur -16.0691 -5.6685 21.9073
rtibia 33.5127
rfoot -11.9433 -15.2823
rtoes -4.41339
lfemur -14.7267 2.13262 -18.6982
ltibia 31.2045
lfoot -11.2526 9.76405
ltoes 2.73833
627
root 3.02088 17.9679 38.5275 4.16769 -0.463366 -4.9094
lowerback 4.05382 -0.0331445 0.189556
upperback -1.50293 0.0975468 3.60607
thorax -3.83427 0.0904413 3.61877
lowerneck -29.2271 0.574482 3.69936
upperneck 27.4377 0.247405 -3.38738
head 14.3016 -0.0073875 -1.9548
rclavicle 1.00883e-014 -9.54166e-015
rhumerus -40.2716 -3.93185 -74.8324
rradius 39.4254
rwrist -10.3618
rhand -14.5011 2.7178
rfingers 7.12502
rthumb 11.6459 -26.9386
lclavicle 1.00883e-014 -9.54166e-015
lhumerus -33.9378 -1.02925 85.4181
lradius 31.2822
lwrist 4.53625
lhand -13.2765 -5.07093
lfingers 7.12502
lthumb 12.8266 24.515
rfemur -15.9188 -5.42062 21.8889
rtibia 32.8488
rfoot -11.9273 -15.5928
rtoes -3.68252
lfemur -14.9823 2.08668 -18.7609
ltibia 31.1994
lfoot -11.2683 9.72989
ltoes 2.68425
628
root 3.00035 17.9711 38.538 4.44043 -0.461056 -4.81501
lowerback 3.76186 -0.116552 0.00677159
upperback -1.5662 -0.0269934 3.64704
thorax -3.72718 0.0329032 3.7722
lowerneck -29.1176 0.698693 3.83879
upperneck 27.4782 0.40549 -3.50214
head 14.3054 0.058753 -1.99332
rclavicle -1.93318e-014 2.74323e-014
rhumerus -40.1725 -3.84194 -74.8272
rradius 39.1366
rwrist -10.2997
rhand -14.5008 2.74861
rfingers 7.12502
rthumb 11.6462 -26.9077
lclavicle -1.93318e-014 2.74323e-014
lhumerus -34.0166 -0.411543 85.303
lradius 30.5635
lwrist 4.05843
lhand -13.0859 -5.00638
lfingers 7.12502
lthumb 13.0104 24.5679
rfemur -15.8246 -5.16788 21.8992
rtibia 32.2525
rfoot -11.9094 -15.8184
rtoes -3.07625
lfemur -15.238 1.99468 -18.7912
ltibia 31.1779
lfoot -11.2669 9.75103
ltoes 2.62547
629
root 2.98087 17.9757 38.5476 4.70112 -0.478722 -4.74682
lowerback 3.50517 -0.198334 -0.125932
upperback -1.63854 -0.145121 3.68179
thorax -3.64902 -0.0225238 3.88997
lowerneck -29.0284 0.827719 3.99055
upperneck 27.5636 0.561172 -3.60556
head 14.3332 0.127307 -2.03099
rclavicle -9.11925e-015 -4.37326e-015
rhumerus -40.0661 -3.76327 -74.837
rradius 38.7942
rwrist -10.2031
rhand -14.4989 2.77192
rfingers 7.12502
rthumb 11.6481 -26.8843
lclavicle -9.11925e-015 -4.37326e-015
lhumerus -34.1168 0.290104 85.1261
lradius 29.8491
lwrist 3.47161
lhand -12.9021 -4.98934
lfingers 7.12502
lthumb 13.1875 24.5736
rfemur -15.7641 -4.92083 21.9271
rtibia 31.7222
rfoot -11.8694 -15.986
rtoes -2.60477
lfemur -15.4696 1.86638 -18.7957
ltibia 31.1448
lfoot -11.2548 9.82497
ltoes 2.58074
